<svg xmlns="http://www.w3.org/2000/svg" width="255" height="255" viewBox="0 0 255 255" version="1.1"><path d="M 189.232 21.585 C 188.012 24.932, 185.152 30.549, 182.878 34.067 C 180.604 37.585, 176.302 42.829, 173.317 45.720 C 170.333 48.610, 164.843 52.755, 161.119 54.931 C 157.395 57.106, 150.782 59.872, 146.424 61.078 C 142.066 62.284, 137.938 63.421, 137.250 63.604 C 136.283 63.862, 136 71.188, 136 95.969 L 136 128 148.250 128.142 C 154.988 128.220, 162.975 128.345, 166 128.420 C 169.025 128.495, 171.997 128.867, 172.604 129.246 C 173.369 129.726, 173.439 131.706, 172.831 135.719 C 172.349 138.898, 170.605 144.274, 168.957 147.665 C 167.308 151.056, 163.901 156.118, 161.387 158.915 C 158.872 161.712, 156.406 164, 155.907 164 C 155.408 164, 155 160.625, 155 156.500 L 155 149 145.500 149 L 136 149 136 170 L 136 191 138.395 191 C 139.712 191, 143.874 190.056, 147.645 188.902 C 151.415 187.749, 157.200 185.386, 160.500 183.653 C 163.887 181.873, 169.812 177.234, 174.104 173 C 180.028 167.157, 182.629 163.622, 185.873 157 C 188.164 152.325, 190.718 145.201, 191.549 141.169 C 192.542 136.351, 192.964 129.668, 192.780 121.669 L 192.500 109.500 173.901 109.228 L 155.302 108.957 154.733 96.728 C 154.420 90.003, 154.414 83.214, 154.719 81.642 C 155.131 79.525, 156.212 78.409, 158.887 77.341 C 160.874 76.547, 164.586 74.796, 167.135 73.449 C 169.685 72.102, 172.272 71, 172.885 71 C 173.591 71, 174 73.397, 174 77.538 L 174 84.075 183.250 83.788 L 192.500 83.500 192.765 54.202 C 192.911 38.089, 192.675 22.789, 192.241 20.202 L 191.452 15.500 189.232 21.585 M 118 25.057 C 114.425 25.559, 108.923 26.485, 105.772 27.116 C 102.339 27.804, 100.299 28.674, 100.679 29.289 C 101.072 29.925, 100.494 30.101, 99.160 29.752 C 97.976 29.443, 94.643 30.087, 91.754 31.185 C 88.864 32.282, 84.475 34.089, 82 35.199 C 79.525 36.310, 73.900 39.599, 69.500 42.508 C 65.100 45.418, 58.489 50.881, 54.809 54.649 C 51.128 58.417, 46.697 63.300, 44.961 65.500 C 43.226 67.700, 40.068 72.425, 37.945 76 C 35.822 79.575, 32.924 85.593, 31.505 89.373 C 30.086 93.153, 27.998 100.128, 26.865 104.873 C 25.732 109.618, 24.562 118.557, 24.264 124.739 C 23.943 131.390, 24.211 139.146, 24.920 143.739 C 25.579 148.007, 27.280 155.100, 28.700 159.500 C 30.120 163.900, 32.855 170.650, 34.777 174.500 C 36.699 178.350, 40.066 184.145, 42.260 187.379 C 44.454 190.612, 48.605 195.709, 51.484 198.705 L 56.719 204.154 57.360 200.952 C 57.712 199.191, 58 192.911, 58 186.996 C 58 176.462, 57.928 176.122, 54.469 170.379 C 52.528 167.155, 49.616 160.388, 48 155.342 C 46.384 150.296, 44.569 142.116, 43.967 137.165 C 43.192 130.793, 43.177 125.436, 43.914 118.831 C 44.487 113.699, 45.692 107.026, 46.591 104.002 C 47.489 100.978, 49.802 95.353, 51.729 91.502 C 53.657 87.651, 57.150 81.798, 59.492 78.496 C 61.834 75.193, 67.069 69.339, 71.125 65.487 C 75.181 61.635, 82.100 56.336, 86.500 53.711 C 90.900 51.087, 98.100 47.816, 102.500 46.442 C 106.900 45.069, 115.056 43.422, 120.624 42.784 C 129.186 41.802, 132.284 41.875, 140.701 43.257 C 146.175 44.156, 152.636 45.574, 155.059 46.408 C 159.017 47.772, 159.705 47.768, 161.837 46.371 C 163.141 45.516, 166.195 42.744, 168.622 40.211 C 171.049 37.678, 172.884 35.151, 172.698 34.594 C 172.513 34.038, 168.792 32.354, 164.431 30.850 C 160.069 29.347, 155.037 28.091, 153.250 28.059 C 151.463 28.026, 150 27.614, 150 27.143 C 150 26.671, 146.512 25.994, 142.250 25.638 C 137.988 25.281, 132.250 24.799, 129.500 24.567 C 126.750 24.335, 121.575 24.555, 118 25.057 M 200.648 61.250 C 200.301 64.138, 200.013 69.409, 200.009 72.964 C 200.001 78.531, 200.541 80.474, 203.897 86.964 C 206.041 91.109, 208.993 98.321, 210.457 102.991 C 211.968 107.810, 213.500 115.811, 213.998 121.491 C 214.506 127.278, 214.503 134.453, 213.991 138.500 C 213.503 142.350, 212.129 148.650, 210.937 152.500 C 209.744 156.350, 207.265 162.489, 205.427 166.141 C 203.588 169.794, 199.918 175.644, 197.269 179.141 C 194.621 182.639, 190.051 187.750, 187.113 190.500 C 184.175 193.250, 179.685 196.994, 177.136 198.819 C 174.586 200.645, 169.350 203.653, 165.500 205.503 C 161.650 207.354, 154.900 209.815, 150.500 210.971 C 146.100 212.128, 138.225 213.338, 133 213.659 C 126.230 214.076, 121.006 213.772, 114.823 212.603 C 110.051 211.701, 104.308 210.314, 102.061 209.522 L 97.976 208.080 92.845 212.290 C 90.023 214.606, 86.634 217.913, 85.314 219.640 L 82.914 222.780 91.707 225.990 C 96.543 227.756, 103.875 229.815, 108 230.566 C 112.125 231.316, 121.575 231.940, 129 231.952 C 138.375 231.967, 145.250 231.403, 151.500 230.106 C 156.450 229.079, 164.104 226.844, 168.509 225.140 C 172.914 223.435, 180.309 219.707, 184.943 216.856 C 190.048 213.714, 196.968 208.091, 202.505 202.585 C 207.530 197.588, 213.579 190.628, 215.947 187.119 C 218.315 183.609, 221.952 177.084, 224.029 172.619 C 226.106 168.153, 228.740 161.125, 229.883 157 C 231.026 152.875, 232.466 143.826, 233.083 136.892 C 234.017 126.395, 233.945 122.521, 232.653 113.761 C 231.800 107.974, 230.139 100.381, 228.963 96.889 C 227.786 93.396, 225.540 87.830, 223.971 84.519 C 222.402 81.209, 219.404 75.933, 217.309 72.796 C 215.214 69.659, 211.294 64.597, 208.598 61.546 C 205.902 58.496, 203.153 56, 202.488 56 C 201.776 56, 201.019 58.159, 200.648 61.250 M 90.138 62.713 C 87.242 64.205, 81.955 67.832, 78.390 70.773 C 74.824 73.714, 69.840 78.906, 67.314 82.310 C 64.788 85.715, 61.216 91.650, 59.377 95.500 C 57.537 99.350, 55.125 106.059, 54.016 110.410 C 52.700 115.573, 52 121.578, 52 127.702 C 52 132.862, 52.714 140.543, 53.588 144.770 C 54.461 148.998, 55.796 153.591, 56.554 154.978 C 57.764 157.191, 57.930 155.085, 57.910 137.789 C 57.892 122.765, 58.281 116.464, 59.545 111.289 C 60.457 107.555, 62.720 101.299, 64.574 97.386 C 66.427 93.474, 70.006 87.529, 72.527 84.176 C 75.048 80.823, 79.141 76.374, 81.623 74.290 C 84.105 72.205, 87.343 69.478, 88.818 68.229 C 90.293 66.980, 93.175 65.211, 95.223 64.298 C 98.119 63.008, 98.702 62.346, 97.850 61.320 C 97.248 60.594, 96.451 60, 96.079 60 C 95.707 60, 93.034 61.221, 90.138 62.713 M 94.065 62.421 C 93.098 63.587, 93.254 63.746, 94.932 63.308 C 96.057 63.013, 96.731 62.374, 96.430 61.886 C 96.128 61.399, 95.739 61, 95.563 61 C 95.388 61, 94.714 61.640, 94.065 62.421 M 112.500 67.450 C 110.300 68.139, 107.543 69.033, 106.374 69.436 C 104.775 69.987, 104.094 71.296, 103.624 74.724 C 103.281 77.229, 102.993 90.129, 102.985 103.390 L 102.969 127.500 93.485 132.011 L 84 136.522 83.930 112.511 C 83.891 99.305, 83.527 87.653, 83.120 86.618 C 82.469 84.961, 81.934 85.259, 78.626 89.118 C 76.560 91.528, 73.331 96.650, 71.450 100.500 C 69.569 104.350, 67.405 109.975, 66.642 113 C 65.583 117.196, 65.186 129.285, 64.965 164 C 64.807 189.025, 64.782 217.825, 64.910 228 L 65.142 246.500 66.925 240.269 C 67.905 236.841, 70.098 231.216, 71.797 227.769 C 73.497 224.321, 76.937 219.101, 79.444 216.168 L 84 210.837 84.047 185.668 L 84.095 160.500 89.297 156.378 C 92.159 154.110, 95.940 151.523, 97.700 150.628 C 99.461 149.732, 101.388 149, 101.983 149 C 102.731 149, 103.039 156.476, 102.983 173.250 C 102.918 192.626, 103.163 197.454, 104.201 197.270 C 104.915 197.144, 109.245 196.019, 113.823 194.770 L 122.147 192.500 121.614 132.500 C 121.320 99.500, 121.062 71.037, 121.040 69.250 C 121.005 66.529, 120.633 66.016, 118.749 66.098 C 117.512 66.152, 114.700 66.760, 112.500 67.450 M 199.809 121.500 C 199.379 141.892, 199.159 144.025, 196.792 150.690 C 195.388 154.644, 192.539 160.944, 190.460 164.690 C 188.040 169.052, 183.431 174.736, 177.642 180.500 C 172.670 185.450, 168.710 190.055, 168.841 190.734 C 168.990 191.503, 168.405 191.750, 167.290 191.390 C 165.830 190.918, 165.770 191.002, 166.966 191.848 C 168.042 192.609, 169.479 192.302, 172.368 190.693 C 174.532 189.487, 178.504 186.529, 181.193 184.120 C 183.883 181.711, 188.028 177.211, 190.404 174.120 C 192.780 171.029, 196.085 165.800, 197.748 162.500 C 199.410 159.200, 201.751 153.350, 202.950 149.500 C 204.301 145.161, 205.344 138.509, 205.695 132 C 206.106 124.387, 205.825 119.396, 204.673 113.846 C 203.799 109.636, 202.451 104.686, 201.678 102.846 C 200.396 99.794, 200.232 101.436, 199.809 121.500 M 109.813 226.683 C 110.534 226.972, 111.397 226.936, 111.729 226.604 C 112.061 226.272, 111.471 226.036, 110.417 226.079 C 109.252 226.127, 109.015 226.364, 109.813 226.683" stroke="none" fill="#50b2c2" fill-rule="evenodd"/><path d="M 0 127.504 L 0 255.008 127.750 254.754 L 255.500 254.500 255.754 127.250 L 256.008 0 128.004 0 L 0 0 0 127.504 M 0.485 128 C 0.485 198.125, 0.604 226.813, 0.750 191.750 C 0.896 156.688, 0.896 99.313, 0.750 64.250 C 0.604 29.188, 0.485 57.875, 0.485 128 M 189.232 21.585 C 188.012 24.932, 185.152 30.549, 182.878 34.067 C 180.604 37.585, 176.302 42.829, 173.317 45.720 C 170.333 48.610, 164.843 52.755, 161.119 54.931 C 157.395 57.106, 150.782 59.872, 146.424 61.078 C 142.066 62.284, 137.938 63.421, 137.250 63.604 C 136.283 63.862, 136 71.188, 136 95.969 L 136 128 148.250 128.142 C 154.988 128.220, 162.975 128.345, 166 128.420 C 169.025 128.495, 171.997 128.867, 172.604 129.246 C 173.369 129.726, 173.439 131.706, 172.831 135.719 C 172.349 138.898, 170.605 144.274, 168.957 147.665 C 167.308 151.056, 163.901 156.118, 161.387 158.915 C 158.872 161.712, 156.406 164, 155.907 164 C 155.408 164, 155 160.625, 155 156.500 L 155 149 145.500 149 L 136 149 136 170 L 136 191 138.395 191 C 139.712 191, 143.874 190.056, 147.645 188.902 C 151.415 187.749, 157.200 185.386, 160.500 183.653 C 163.887 181.873, 169.812 177.234, 174.104 173 C 180.028 167.157, 182.629 163.622, 185.873 157 C 188.164 152.325, 190.718 145.201, 191.549 141.169 C 192.542 136.351, 192.964 129.668, 192.780 121.669 L 192.500 109.500 173.901 109.228 L 155.302 108.957 154.733 96.728 C 154.420 90.003, 154.414 83.214, 154.719 81.642 C 155.131 79.525, 156.212 78.409, 158.887 77.341 C 160.874 76.547, 164.586 74.796, 167.135 73.449 C 169.685 72.102, 172.272 71, 172.885 71 C 173.591 71, 174 73.397, 174 77.538 L 174 84.075 183.250 83.788 L 192.500 83.500 192.765 54.202 C 192.911 38.089, 192.675 22.789, 192.241 20.202 L 191.452 15.500 189.232 21.585 M 118 25.057 C 114.425 25.559, 108.923 26.485, 105.772 27.116 C 102.339 27.804, 100.299 28.674, 100.679 29.289 C 101.072 29.925, 100.494 30.101, 99.160 29.752 C 97.976 29.443, 94.643 30.087, 91.754 31.185 C 88.864 32.282, 84.475 34.089, 82 35.199 C 79.525 36.310, 73.900 39.599, 69.500 42.508 C 65.100 45.418, 58.489 50.881, 54.809 54.649 C 51.128 58.417, 46.697 63.300, 44.961 65.500 C 43.226 67.700, 40.068 72.425, 37.945 76 C 35.822 79.575, 32.924 85.593, 31.505 89.373 C 30.086 93.153, 27.998 100.128, 26.865 104.873 C 25.732 109.618, 24.562 118.557, 24.264 124.739 C 23.943 131.390, 24.211 139.146, 24.920 143.739 C 25.579 148.007, 27.280 155.100, 28.700 159.500 C 30.120 163.900, 32.855 170.650, 34.777 174.500 C 36.699 178.350, 40.066 184.145, 42.260 187.379 C 44.454 190.612, 48.605 195.709, 51.484 198.705 L 56.719 204.154 57.360 200.952 C 57.712 199.191, 58 192.911, 58 186.996 C 58 176.462, 57.928 176.122, 54.469 170.379 C 52.528 167.155, 49.616 160.388, 48 155.342 C 46.384 150.296, 44.569 142.116, 43.967 137.165 C 43.192 130.793, 43.177 125.436, 43.914 118.831 C 44.487 113.699, 45.692 107.026, 46.591 104.002 C 47.489 100.978, 49.802 95.353, 51.729 91.502 C 53.657 87.651, 57.150 81.798, 59.492 78.496 C 61.834 75.193, 67.069 69.339, 71.125 65.487 C 75.181 61.635, 82.100 56.336, 86.500 53.711 C 90.900 51.087, 98.100 47.816, 102.500 46.442 C 106.900 45.069, 115.056 43.422, 120.624 42.784 C 129.186 41.802, 132.284 41.875, 140.701 43.257 C 146.175 44.156, 152.636 45.574, 155.059 46.408 C 159.017 47.772, 159.705 47.768, 161.837 46.371 C 163.141 45.516, 166.195 42.744, 168.622 40.211 C 171.049 37.678, 172.884 35.151, 172.698 34.594 C 172.513 34.038, 168.792 32.354, 164.431 30.850 C 160.069 29.347, 155.037 28.091, 153.250 28.059 C 151.463 28.026, 150 27.614, 150 27.143 C 150 26.671, 146.512 25.994, 142.250 25.638 C 137.988 25.281, 132.250 24.799, 129.500 24.567 C 126.750 24.335, 121.575 24.555, 118 25.057 M 200.648 61.250 C 200.301 64.138, 200.013 69.409, 200.009 72.964 C 200.001 78.531, 200.541 80.474, 203.897 86.964 C 206.041 91.109, 208.993 98.321, 210.457 102.991 C 211.968 107.810, 213.500 115.811, 213.998 121.491 C 214.506 127.278, 214.503 134.453, 213.991 138.500 C 213.503 142.350, 212.129 148.650, 210.937 152.500 C 209.744 156.350, 207.265 162.489, 205.427 166.141 C 203.588 169.794, 199.918 175.644, 197.269 179.141 C 194.621 182.639, 190.051 187.750, 187.113 190.500 C 184.175 193.250, 179.685 196.994, 177.136 198.819 C 174.586 200.645, 169.350 203.653, 165.500 205.503 C 161.650 207.354, 154.900 209.815, 150.500 210.971 C 146.100 212.128, 138.225 213.338, 133 213.659 C 126.230 214.076, 121.006 213.772, 114.823 212.603 C 110.051 211.701, 104.308 210.314, 102.061 209.522 L 97.976 208.080 92.845 212.290 C 90.023 214.606, 86.634 217.913, 85.314 219.640 L 82.914 222.780 91.707 225.990 C 96.543 227.756, 103.875 229.815, 108 230.566 C 112.125 231.316, 121.575 231.940, 129 231.952 C 138.375 231.967, 145.250 231.403, 151.500 230.106 C 156.450 229.079, 164.104 226.844, 168.509 225.140 C 172.914 223.435, 180.309 219.707, 184.943 216.856 C 190.048 213.714, 196.968 208.091, 202.505 202.585 C 207.530 197.588, 213.579 190.628, 215.947 187.119 C 218.315 183.609, 221.952 177.084, 224.029 172.619 C 226.106 168.153, 228.740 161.125, 229.883 157 C 231.026 152.875, 232.466 143.826, 233.083 136.892 C 234.017 126.395, 233.945 122.521, 232.653 113.761 C 231.800 107.974, 230.139 100.381, 228.963 96.889 C 227.786 93.396, 225.540 87.830, 223.971 84.519 C 222.402 81.209, 219.404 75.933, 217.309 72.796 C 215.214 69.659, 211.294 64.597, 208.598 61.546 C 205.902 58.496, 203.153 56, 202.488 56 C 201.776 56, 201.019 58.159, 200.648 61.250 M 90.138 62.713 C 87.242 64.205, 81.955 67.832, 78.390 70.773 C 74.824 73.714, 69.840 78.906, 67.314 82.310 C 64.788 85.715, 61.216 91.650, 59.377 95.500 C 57.537 99.350, 55.125 106.059, 54.016 110.410 C 52.700 115.573, 52 121.578, 52 127.702 C 52 132.862, 52.714 140.543, 53.588 144.770 C 54.461 148.998, 55.796 153.591, 56.554 154.978 C 57.764 157.191, 57.930 155.085, 57.910 137.789 C 57.892 122.765, 58.281 116.464, 59.545 111.289 C 60.457 107.555, 62.720 101.299, 64.574 97.386 C 66.427 93.474, 70.006 87.529, 72.527 84.176 C 75.048 80.823, 79.141 76.374, 81.623 74.290 C 84.105 72.205, 87.343 69.478, 88.818 68.229 C 90.293 66.980, 93.175 65.211, 95.223 64.298 C 98.119 63.008, 98.702 62.346, 97.850 61.320 C 97.248 60.594, 96.451 60, 96.079 60 C 95.707 60, 93.034 61.221, 90.138 62.713 M 94.065 62.421 C 93.098 63.587, 93.254 63.746, 94.932 63.308 C 96.057 63.013, 96.731 62.374, 96.430 61.886 C 96.128 61.399, 95.739 61, 95.563 61 C 95.388 61, 94.714 61.640, 94.065 62.421 M 112.500 67.450 C 110.300 68.139, 107.543 69.033, 106.374 69.436 C 104.775 69.987, 104.094 71.296, 103.624 74.724 C 103.281 77.229, 102.993 90.129, 102.985 103.390 L 102.969 127.500 93.485 132.011 L 84 136.522 83.930 112.511 C 83.891 99.305, 83.527 87.653, 83.120 86.618 C 82.469 84.961, 81.934 85.259, 78.626 89.118 C 76.560 91.528, 73.331 96.650, 71.450 100.500 C 69.569 104.350, 67.405 109.975, 66.642 113 C 65.583 117.196, 65.186 129.285, 64.965 164 C 64.807 189.025, 64.782 217.825, 64.910 228 L 65.142 246.500 66.925 240.269 C 67.905 236.841, 70.098 231.216, 71.797 227.769 C 73.497 224.321, 76.937 219.101, 79.444 216.168 L 84 210.837 84.047 185.668 L 84.095 160.500 89.297 156.378 C 92.159 154.110, 95.940 151.523, 97.700 150.628 C 99.461 149.732, 101.388 149, 101.983 149 C 102.731 149, 103.039 156.476, 102.983 173.250 C 102.918 192.626, 103.163 197.454, 104.201 197.270 C 104.915 197.144, 109.245 196.019, 113.823 194.770 L 122.147 192.500 121.614 132.500 C 121.320 99.500, 121.062 71.037, 121.040 69.250 C 121.005 66.529, 120.633 66.016, 118.749 66.098 C 117.512 66.152, 114.700 66.760, 112.500 67.450 M 199.809 121.500 C 199.379 141.892, 199.159 144.025, 196.792 150.690 C 195.388 154.644, 192.539 160.944, 190.460 164.690 C 188.040 169.052, 183.431 174.736, 177.642 180.500 C 172.670 185.450, 168.710 190.055, 168.841 190.734 C 168.990 191.503, 168.405 191.750, 167.290 191.390 C 165.830 190.918, 165.770 191.002, 166.966 191.848 C 168.042 192.609, 169.479 192.302, 172.368 190.693 C 174.532 189.487, 178.504 186.529, 181.193 184.120 C 183.883 181.711, 188.028 177.211, 190.404 174.120 C 192.780 171.029, 196.085 165.800, 197.748 162.500 C 199.410 159.200, 201.751 153.350, 202.950 149.500 C 204.301 145.161, 205.344 138.509, 205.695 132 C 206.106 124.387, 205.825 119.396, 204.673 113.846 C 203.799 109.636, 202.451 104.686, 201.678 102.846 C 200.396 99.794, 200.232 101.436, 199.809 121.500 M 109.813 226.683 C 110.534 226.972, 111.397 226.936, 111.729 226.604 C 112.061 226.272, 111.471 226.036, 110.417 226.079 C 109.252 226.127, 109.015 226.364, 109.813 226.683" stroke="none" fill="#070d0e" fill-rule="evenodd"/></svg>